<?xml version="1.0" encoding="UTF-8"?>
<svg id="Layer_1" xmlns="http://www.w3.org/2000/svg" version="1.1" viewBox="0 0 573.57 179.58">
  <!-- Generator: Adobe Illustrator 30.2.1, SVG Export Plug-In . SVG Version: 2.1.1 Build 1)  -->
  <defs>
    <style>
      .st0 {
        fill: #fff;
      }
    </style>
  </defs>
  <g>
    <path class="st0" d="M57.26,155.58c-8.37,7.99-19.96,8.34-28.61,1.85-7.97-5.98-11.04-17.37-6.27-26.8,4.57-9.03,15.05-13.98,25.3-11.09,9.74,2.75,16.46,12.09,15.72,22.85,23.44,11.35,51.38,2.9,64.97-18.61,13.7-21.68,8.55-50.39-11.68-66.47-3.09-2.45-2.87-7.16-.6-9.81s6.56-3.72,9.87-1.1c25.83,20.49,31.85,57.34,14.51,84.91-17.31,27.51-52.85,38.5-83.2,24.26Z"/>
    <path class="st0" d="M34.97,102.38c.53,4.76-1.73,8.31-5.98,8.96-3.57.54-7.78-1.89-8.34-6.29-3.88-30.39,14.01-59.11,43.14-69.24,1.92-10.46,10.53-17.69,20.42-18.17,10.81-.53,20.04,7.01,22.25,16.72,2.38,10.46-3.17,20.72-12.37,24.69-10,4.31-21.34.91-27.36-8.7-20.87,8.07-34.29,29.06-31.74,52.03Z"/>
    <path class="st0" d="M84.31,68.13c16.61-.56,29.28,12.33,29.91,27.73.65,16-11.97,29.21-27.37,29.99-16.22.82-29.64-11.68-30.44-27.25s11.27-29.9,27.9-30.47Z"/>
  </g>
  <g>
    <path class="st0" d="M389.64,129.08c-5.71-.21-9.56-2.35-13.02-6.26-7.13-8.06-6.57-23.08-1.3-32.36,3.44-6.06,9.4-9.04,16.16-9.4,6.13-.33,10.5,1.91,14.97,7.13l.1-28.72,10.35.02.03,68.63-10.33.19-.27-7.84c-3.89,5.84-9.34,8.87-16.69,8.61ZM404.93,113.34c2.36-5.54,2.6-12.54-.03-17.93-3.18-6.52-12.62-7.82-17.63-2.89-5.44,5.35-5.69,13.45-3.6,20.27,1.56,5.11,5.58,7.62,10.54,7.8,4.4.16,8.62-2.29,10.73-7.24Z"/>
    <path class="st0" d="M303.89,83.17c13.39,7.28,11.91,30.46,3.9,39.7-5.22,6.04-15.03,8.15-22.53,4.37-2.3-1.16-4.12-3.36-6.06-5.02l-.38,6.03-10.24-.12V59.57s10.35-.07,10.35-.07l.11,30.04,3.45-3.56c5.37-5.54,14.74-6.43,21.41-2.81ZM299.05,116.78c3.5-4.46,4.54-11.06,3.61-16.37s-3.8-9.58-8.9-10.57c-4.8-.93-9.07.72-12.42,5.09-2.74,3.57-5.79,20.06,4.54,24.68,4.08,1.82,10.04,1.15,13.17-2.83Z"/>
    <path class="st0" d="M553.45,128.13l-11.15.14-.24-31.03c-.03-3.31-3.61-6.7-5.99-7.34-8.43-2.26-13.24,6.83-13.25,10.61l-.07,27.75-11.23-.04V59.49s11.24-.04,11.24-.04l.03,29.3c1.86-1.63,3.35-3.2,5.24-4.68,4.94-3.88,12.7-4,18.23-.96,4.24,2.33,6.9,7.61,6.94,12.6l.24,32.42Z"/>
    <path class="st0" d="M223.97,119.97c-5.31,6.52-11.97,9.05-19.93,9.18-12.28.19-22.24-7.53-23.77-19.96-.89-7.21.88-14.85,5.75-20.69s12.77-7.4,20.21-7.44c13.36-.06,22.71,10.23,21.98,23.31-.31,5.55-.54,11.07-4.24,15.6ZM212.14,118.27c6.8-4.91,7.09-20.12.15-26.08-4.34-3.73-12.61-3.62-16.64.79-6.03,6.6-6.21,17.76-.08,24.17,4.21,4.4,11.87,4.52,16.57,1.12Z"/>
    <path class="st0" d="M450.49,124.82c-4.74,5.11-13.7,5.53-19.45,2.23s-7.46-9.76-5.98-15.61c1.38-5.44,5.93-9.79,12.31-10.76l16.39-2.5c-.02-3.97-2.15-7.8-6.06-8.67-6.92-1.53-12.95,1.16-18.61,5.25l-.02-9.18c7.64-5.19,24.95-6.94,31.29.32,2.01,2.3,3.73,7.03,3.75,10.34l.21,32.01-10.36-.04-.28-6.83-3.18,3.43ZM450.31,117.84c3.02-3.62,3.96-7.44,3.39-12.34-7.77,1.46-17-.11-18.71,7.54-.67,3,.9,5.56,3.93,7.06,3.34,1.65,8.73.93,11.4-2.26Z"/>
    <path class="st0" d="M504.74,115.82c-1.03,14.4-22.55,15.39-33.72,10.83l.14-10.07c6.53,4.6,14.39,5.92,21.05,2.96,1.41-.63,1.73-4.25,1.21-5.5-2.78-6.73-21.58-4.57-22.23-19.14-.17-3.91,2.09-7.66,5.86-10.15,7.17-4.73,16.12-4.33,24.57-2.08l-.05,9.09c-5.7-3.62-19.89-4.52-19.51,3.25.34,6.92,23.73,5.89,22.67,20.82Z"/>
    <path class="st0" d="M368.33,128.04c-4.73.99-8.76,1.42-13.21.42s-8.41-5.18-8.45-10.14l-.18-28.18-7.33-.12v-8.05s7.33-.12,7.33-.12l.15-10.58,11.13-2.99v13.62s10.51,0,10.51,0v8.23s-10.53,0-10.53,0l.07,26.1c0,1.45,2.43,4.07,3.81,4.2,1.85.17,4.03-.15,6.5-.61l.2,8.23Z"/>
    <path class="st0" d="M246.76,128.21l-10.35.03-.04-46.24,10.34-.16.25,8.47c2.73-6.98,9.05-10.93,16.33-8.54l-.12,9.64c-5.25-2.45-9.49-1.33-12.99,3.08-1.53,1.93-3.15,5.69-3.18,8.61l-.24,25.11Z"/>
    <polygon class="st0" points="333.03 128.18 321.77 128.26 321.77 81.9 333.03 81.9 333.03 128.18"/>
    <path class="st0" d="M326.67,72.21c-4.09-.3-5.81-3.28-5.69-6.39.14-3.58,2.92-5.75,6.84-5.63s6.19,3,6,6.37c-.19,3.39-2.99,5.95-7.15,5.65Z"/>
  </g>
</svg>